<svg xmlns="http://www.w3.org/2000/svg" width="256" height="256" viewBox="0 0 256 256" role="img" aria-label="Pellet Usage Monitor icon">
  <defs>
    <style>
      .accent { fill: #E07A1F; }
      .dark { fill: #2b2f36; }
      .mid { fill: #4b5563; }
      .light { fill: #f5f5f5; }
    </style>
  </defs>
  <rect x="12" y="12" width="232" height="232" rx="40" class="light" stroke="#cbd5e1" stroke-width="8"/>
  <rect x="78" y="40" width="100" height="30" rx="10" class="mid"/>
  <circle cx="128" cy="108" r="44" class="light" stroke="#2b2f36" stroke-width="8"/>
  <path d="M128 108 L160 80" stroke="#2b2f36" stroke-width="8" stroke-linecap="round"/>
  <path d="M100 100 A30 30 0 0 1 148 100" fill="none" stroke="#5dbb63" stroke-width="8" stroke-linecap="round"/>
  <path d="M148 100 A30 30 0 0 1 176 128" fill="none" stroke="#f5b041" stroke-width="8" stroke-linecap="round"/>
  <rect x="84" y="146" width="88" height="42" rx="12" class="dark"/>
  <path d="M128 152 C120 164 128 164 120 176 C136 172 144 164 140 156 C146 164 156 168 160 164 C156 156 144 148 128 152 Z" class="accent"/>
  <g transform="translate(148 160)">
    <rect x="0" y="16" width="44" height="18" rx="8" class="accent"/>
    <rect x="16" y="0" width="44" height="18" rx="8" class="accent"/>
    <rect x="26" y="32" width="44" height="18" rx="8" class="accent"/>
  </g>
</svg>
