<svg xmlns="http://www.w3.org/2000/svg" width="520" height="120" viewBox="0 0 520 120" role="img" aria-label="Pellet Usage Monitor logo">
  <defs>
    <style>
      .accent { fill: #E07A1F; }
      .dark { fill: #2b2f36; }
      .mid { fill: #4b5563; }
      .light { fill: #f5f5f5; }
    </style>
  </defs>
  <g transform="translate(10 10)">
    <rect x="0" y="0" width="100" height="100" rx="18" class="light" stroke="#cbd5e1" stroke-width="4"/>
    <rect x="20" y="10" width="60" height="16" rx="6" class="mid"/>
    <circle cx="50" cy="46" r="20" class="light" stroke="#2b2f36" stroke-width="4"/>
    <path d="M50 46 L64 34" stroke="#2b2f36" stroke-width="4" stroke-linecap="round"/>
    <path d="M38 42 A14 14 0 0 1 62 42" fill="none" stroke="#5dbb63" stroke-width="4" stroke-linecap="round"/>
    <path d="M62 42 A14 14 0 0 1 74 54" fill="none" stroke="#f5b041" stroke-width="4" stroke-linecap="round"/>
    <rect x="22" y="60" width="56" height="26" rx="6" class="dark"/>
    <path d="M50 64 C46 70 50 70 46 76 C52 74 56 70 54 66 C56 70 60 72 62 70 C60 66 56 62 50 64 Z" class="accent"/>
    <g transform="translate(70 70)">
      <rect x="0" y="8" width="30" height="12" rx="6" class="accent"/>
      <rect x="10" y="0" width="30" height="12" rx="6" class="accent"/>
      <rect x="16" y="16" width="30" height="12" rx="6" class="accent"/>
    </g>
  </g>
  <g transform="translate(140 40)">
    <text x="0" y="0" font-size="32" font-family="-apple-system, BlinkMacSystemFont, 'Segoe UI', Roboto, Helvetica, Arial, sans-serif" font-weight="700" class="accent">Pellet Usage Monitor</text>
    <text x="0" y="34" font-size="16" font-family="-apple-system, BlinkMacSystemFont, 'Segoe UI', Roboto, Helvetica, Arial, sans-serif" fill="#4b5563">Track deliveries, refills, and household inventory.</text>
  </g>
</svg>
